<svg width="31" height="23" viewBox="0 0 31 23" fill="none" xmlns="http://www.w3.org/2000/svg">
<path d="M29.4491 3.41741e-06H1.54827C1.26579 0.000881024 0.9889 0.0780889 0.747402 0.223315C0.505905 0.368541 0.308949 0.576284 0.177731 0.824187C0.046514 1.07209 -0.0139945 1.35076 0.00271979 1.63021C0.0194341 1.90966 0.112737 2.1793 0.272587 2.4101L14.223 22.379C14.8011 23.207 16.1931 23.207 16.7728 22.379L30.7232 2.4101C30.8847 2.17978 30.9794 1.91 30.997 1.63009C31.0146 1.35018 30.9545 1.07083 30.8232 0.822406C30.6918 0.573978 30.4943 0.365967 30.252 0.220977C30.0098 0.0759865 29.7321 -0.000438332 29.4491 3.41741e-06Z" fill="#877DF0"/>
</svg>
