<svg width="31" height="23" viewBox="0 0 31 23" fill="none" xmlns="http://www.w3.org/2000/svg">
<path d="M1.55093 23L29.4517 23C29.7342 22.9991 30.0111 22.9219 30.2526 22.7767C30.4941 22.6315 30.6911 22.4237 30.8223 22.1758C30.9535 21.9279 31.014 21.6492 30.9973 21.3698C30.9806 21.0903 30.8873 20.8207 30.7274 20.5899L16.777 0.620957C16.1989 -0.206986 14.8069 -0.206986 14.2272 0.620957L0.276797 20.5899C0.115321 20.8202 0.0206278 21.09 0.00300542 21.3699C-0.014617 21.6498 0.0455056 21.9292 0.176841 22.1776C0.308176 22.426 0.505701 22.634 0.747955 22.779C0.990209 22.924 1.26793 23.0004 1.55093 23Z" fill="#877DF0"/>
</svg>
